<?xml version="1.0" encoding="UTF-8"?>
<svg id="Layer_2" data-name="Layer 2" xmlns="http://www.w3.org/2000/svg" xmlns:xlink="http://www.w3.org/1999/xlink" viewBox="0 0 325.16 62.44">
  <defs>
    <style>
      .cls-1 {
        fill: #1b1f3b;
      }

      .cls-2 {
        fill: #1c89d2;
      }

      .cls-3 {
        fill: #fff;
      }

      .cls-4 {
        fill: #ff6f00;
      }

      .cls-5 {
        fill: none;
        stroke: #1c89d2;
        stroke-miterlimit: 10;
        stroke-width: 5px;
      }

      .cls-6 {
        fill: url(#linear-gradient);
      }
    </style>
    <linearGradient id="linear-gradient" x1="29.91" y1="10.85" x2="29.91" y2="40.51" gradientUnits="userSpaceOnUse">
      <stop offset="0" stop-color="#f29503"/>
      <stop offset="1" stop-color="#ffc705"/>
    </linearGradient>
  </defs>
  <g id="Layer_1-2" data-name="Layer 1">
    <g>
      <rect class="cls-5" x="2.5" y="2.5" width="57.44" height="57.44" rx="11.52" ry="11.52"/>
      <path class="cls-2" d="M10.72,44.16c2.21-4.5,9.05-18.3,15-28.24,1-1.68,2.98-4.89,5.61-4.89,2.56,0,4.47,3.04,5.43,4.61,6.02,9.81,13.2,23.99,15.3,28.17.86,2.75-.27,5.36-1.89,6.02-1.88.77-5.13-.78-5.93-4.28-.2-.48-.72-1.57-1.89-2.43-1.35-1-2.75-1.1-3.26-1.11-5.12.08-10.25.16-15.37.24-.58.08-1.76.32-2.96,1.2-1.17.86-1.77,1.89-2.02,2.41-.79,3.27-4.02,4.71-6.02,3.83-1.62-.72-2.67-3.07-2-5.53Z"/>
      <path class="cls-2" d="M47.23,34.9c-7.67.06-15.35.12-23.02.19-.05.42-.42,3.08-2.8,4.7-1.66,1.13-3.37,1.13-3.98,1.1-1.43-.03-2.86-.07-4.28-.1-.2,1.45-.4,2.9-.59,4.34l14.2-4.04c5.07.02,10.13.04,15.2.07,1.83,1.89,3.65,3.78,5.48,5.67,1.22.03,2.43.06,3.65.08-1.28-4-2.57-8.01-3.85-12.01Z"/>
      <path class="cls-3" d="M24.54,34.51c2.23-4.17,4.45-8.35,6.68-12.52,2.27,4.17,4.55,8.35,6.82,12.52h-13.5Z"/>
      <path class="cls-6" d="M12.53,40.51c1.77-.25,3.55-.49,5.32-.74.82-.17,2.01-.54,3.26-1.35,2.01-1.31,3.01-3.05,3.43-3.91,2.23-4.17,4.45-8.35,6.68-12.52,2.27,4.17,4.55,8.35,6.82,12.52h9.25c-2.27-4.63-6.61-13.18-11.22-19.96-.92-1.35-2.58-3.7-4.77-3.7-2.21,0-3.86,2.4-4.72,3.7-5.22,7.9-12.41,22.59-14.05,25.95Z"/>
    </g>
    <g>
      <path class="cls-1" d="M74.3,37.58L89.68,2.96h7.91l15.53,34.62h-8.41l-12.71-30.57h3.22l-12.71,30.57h-8.21ZM82.07,30.16l2.03-6.08h17.9l2.08,6.08h-22.01Z"/>
      <path class="cls-1" d="M127.42,37.97c-2.24,0-4.22-.43-5.94-1.29-1.72-.86-3.05-2.18-4.01-3.96-.96-1.78-1.43-4.02-1.43-6.73v-15.04h7.72v13.85c0,2.24.47,3.88,1.41,4.92.94,1.04,2.27,1.56,3.98,1.56,1.19,0,2.24-.26,3.17-.79.92-.53,1.66-1.32,2.2-2.37s.82-2.37.82-3.96v-13.21h7.67v26.61h-7.32v-7.37l1.33,2.18c-.92,1.85-2.24,3.24-3.96,4.18-1.72.94-3.59,1.41-5.64,1.41Z"/>
      <path class="cls-1" d="M147.01,17.5v-5.93h18.45v5.93h-18.45ZM161.05,37.97c-3.13,0-5.57-.8-7.32-2.4s-2.62-3.98-2.62-7.15V5.08h7.77v23.2c0,1.12.29,2,.87,2.62.58.63,1.36.94,2.35.94,1.25,0,2.31-.33,3.17-.99l2.03,5.44c-.76.56-1.69.98-2.79,1.26-1.1.28-2.25.42-3.44.42Z"/>
      <path class="cls-1" d="M184.3,37.97c-2.8,0-5.3-.59-7.49-1.78s-3.92-2.81-5.17-4.87c-1.25-2.06-1.88-4.41-1.88-7.05s.63-5.04,1.88-7.1c1.25-2.06,2.98-3.68,5.17-4.85s4.69-1.76,7.49-1.76,5.36.59,7.57,1.76,3.94,2.79,5.19,4.85c1.25,2.06,1.88,4.43,1.88,7.1s-.63,5.03-1.88,7.07c-1.25,2.05-2.98,3.66-5.19,4.85s-4.73,1.78-7.57,1.78ZM184.3,31.64c1.32,0,2.48-.29,3.49-.87,1.01-.58,1.81-1.43,2.42-2.55.61-1.12.92-2.44.92-3.96s-.31-2.87-.92-3.96c-.61-1.09-1.42-1.92-2.42-2.5-1.01-.58-2.15-.87-3.44-.87s-2.44.29-3.46.87c-1.02.58-1.84,1.41-2.45,2.5-.61,1.09-.92,2.41-.92,3.96s.31,2.84.92,3.96c.61,1.12,1.43,1.97,2.45,2.55,1.02.58,2.16.87,3.41.87Z"/>
      <path class="cls-1" d="M215.01,37.58l-14.99-34.62h8.7l13.06,30.67h-5.09l13.25-30.67h7.96l-14.99,34.62h-7.91Z"/>
      <path class="cls-1" d="M254.19,37.97c-3.03,0-5.69-.59-7.96-1.78s-4.04-2.81-5.29-4.87c-1.25-2.06-1.88-4.41-1.88-7.05s.6-5,1.81-7.07c1.2-2.08,2.88-3.7,5.04-4.87,2.16-1.17,4.59-1.76,7.3-1.76s4.95.56,7.05,1.68c2.09,1.12,3.75,2.7,4.97,4.75,1.22,2.05,1.83,4.5,1.83,7.37,0,.3-.02.64-.05,1.01-.03.38-.07.73-.1,1.06h-21.61v-4.5h17.56l-3.02,1.33c.03-1.39-.23-2.59-.79-3.61-.56-1.02-1.34-1.82-2.32-2.4-.99-.58-2.14-.87-3.46-.87s-2.48.29-3.49.87c-1.01.58-1.79,1.39-2.35,2.42-.56,1.04-.84,2.27-.84,3.68v1.19c0,1.48.33,2.77.99,3.86.66,1.09,1.57,1.92,2.72,2.5,1.15.58,2.54.87,4.15.87,1.39,0,2.61-.21,3.69-.64,1.07-.43,2.05-1.07,2.94-1.93l4.11,4.45c-1.22,1.38-2.75,2.45-4.6,3.19-1.85.74-3.97,1.11-6.38,1.11Z"/>
      <path class="cls-1" d="M268.78,37.58l11.97-15.58-.15,4.25-11.38-15.28h8.61l7.22,9.94-3.26.1,7.42-10.04h8.26l-11.52,15.09.05-4.15,11.87,15.68h-8.75l-7.57-10.58,3.22.44-7.47,10.14h-8.51Z"/>
      <path class="cls-1" d="M309.83,37.97c-2.04,0-3.81-.35-5.29-1.06-1.48-.71-2.63-1.67-3.44-2.89-.81-1.22-1.21-2.59-1.21-4.11s.39-2.93,1.16-4.13c.77-1.2,2-2.13,3.68-2.79,1.68-.66,3.89-.99,6.63-.99h7.02v4.45h-6.23c-1.81,0-3.06.3-3.73.89-.68.59-1.01,1.33-1.01,2.22,0,.99.39,1.77,1.16,2.35.77.58,1.82.87,3.14.87s2.5-.3,3.54-.89c1.04-.59,1.77-1.5,2.2-2.72l1.19,3.61c-.56,1.65-1.58,2.93-3.07,3.83-1.48.91-3.4,1.36-5.74,1.36ZM317.94,37.58v-5.19l-.49-1.14v-9.3c0-1.65-.5-2.94-1.51-3.86s-2.55-1.39-4.62-1.39c-1.42,0-2.81.22-4.18.67-1.37.44-2.55,1.05-3.54,1.8l-2.72-5.39c1.45-1.05,3.2-1.85,5.24-2.4,2.04-.54,4.12-.82,6.23-.82,4.06,0,7.2.96,9.45,2.87s3.36,4.9,3.36,8.95v15.18h-7.22Z"/>
    </g>
    <g>
      <path class="cls-4" d="M102.58,54.74h-4.77l-1.07,2.98h-1.55l4.34-11.38h1.31l4.35,11.38h-1.54l-1.09-2.98ZM98.27,53.51h3.87l-1.94-5.32-1.93,5.32Z"/>
      <path class="cls-4" d="M111.65,56.88c-.56.66-1.39.99-2.48.99-.9,0-1.59-.26-2.06-.79-.47-.52-.71-1.3-.71-2.32v-5.5h1.45v5.46c0,1.28.52,1.92,1.56,1.92,1.1,0,1.84-.41,2.2-1.23v-6.15h1.45v8.45h-1.38l-.03-.84Z"/>
      <path class="cls-4" d="M117.21,47.22v2.05h1.58v1.12h-1.58v5.25c0,.34.07.59.21.76.14.17.38.25.72.25.17,0,.4-.03.69-.09v1.17c-.38.1-.75.16-1.11.16-.65,0-1.13-.2-1.46-.59s-.49-.95-.49-1.66v-5.24h-1.54v-1.12h1.54v-2.05h1.45Z"/>
      <path class="cls-4" d="M119.93,53.41c0-.83.16-1.57.49-2.23.33-.66.78-1.17,1.36-1.53.58-.36,1.24-.54,1.99-.54,1.15,0,2.08.4,2.79,1.2s1.07,1.86,1.07,3.18v.1c0,.82-.16,1.56-.47,2.21-.32.65-.77,1.16-1.35,1.53s-1.26.55-2.02.55c-1.15,0-2.07-.4-2.79-1.2s-1.07-1.85-1.07-3.16v-.1ZM121.39,53.58c0,.94.22,1.69.65,2.26.43.57,1.02.85,1.75.85s1.32-.29,1.75-.86c.43-.58.65-1.38.65-2.42,0-.93-.22-1.68-.66-2.25-.44-.58-1.02-.86-1.75-.86s-1.29.28-1.73.85-.66,1.38-.66,2.44Z"/>
      <path class="cls-4" d="M130.8,49.26l.04.94c.62-.73,1.46-1.09,2.51-1.09,1.18,0,1.99.45,2.41,1.36.28-.41.65-.73,1.1-.98.45-.25.98-.38,1.6-.38,1.85,0,2.8.98,2.83,2.95v5.66h-1.45v-5.58c0-.6-.14-1.06-.41-1.36-.28-.3-.74-.45-1.39-.45-.54,0-.98.16-1.34.48-.35.32-.56.75-.62,1.29v5.61h-1.45v-5.54c0-1.23-.6-1.84-1.8-1.84-.95,0-1.6.4-1.95,1.21v6.17h-1.45v-8.45h1.37Z"/>
      <path class="cls-4" d="M148.68,57.72c-.08-.17-.15-.46-.2-.89-.67.7-1.47,1.05-2.41,1.05-.83,0-1.52-.24-2.05-.71-.53-.47-.8-1.07-.8-1.79,0-.88.33-1.56,1-2.05.67-.49,1.61-.73,2.82-.73h1.41v-.66c0-.5-.15-.91-.45-1.21-.3-.3-.75-.45-1.34-.45-.52,0-.95.13-1.3.39-.35.26-.52.58-.52.95h-1.45c0-.42.15-.83.45-1.22.3-.39.71-.7,1.22-.93.51-.23,1.08-.34,1.69-.34.97,0,1.74.24,2.29.73.55.49.84,1.16.86,2.01v3.89c0,.78.1,1.39.3,1.85v.12h-1.52ZM146.29,56.61c.45,0,.88-.12,1.29-.35s.7-.54.88-.91v-1.73h-1.13c-1.77,0-2.66.52-2.66,1.55,0,.45.15.81.45,1.06.3.25.69.38,1.16.38Z"/>
      <path class="cls-4" d="M154.13,47.22v2.05h1.58v1.12h-1.58v5.25c0,.34.07.59.21.76.14.17.38.25.72.25.17,0,.4-.03.69-.09v1.17c-.38.1-.75.16-1.11.16-.65,0-1.13-.2-1.46-.59s-.49-.95-.49-1.66v-5.24h-1.54v-1.12h1.54v-2.05h1.45Z"/>
      <path class="cls-4" d="M160.9,57.87c-1.15,0-2.08-.38-2.8-1.13s-1.08-1.76-1.08-3.02v-.27c0-.84.16-1.59.48-2.25s.77-1.17,1.34-1.55,1.2-.56,1.87-.56c1.1,0,1.95.36,2.56,1.09s.91,1.76.91,3.11v.6h-5.73c.02.83.26,1.51.73,2.02s1.06.77,1.78.77c.51,0,.94-.1,1.3-.31s.66-.48.93-.83l.88.69c-.71,1.09-1.77,1.63-3.19,1.63ZM160.72,50.29c-.58,0-1.07.21-1.47.64s-.64,1.02-.73,1.79h4.23v-.11c-.04-.73-.24-1.3-.59-1.71s-.83-.61-1.44-.61Z"/>
      <path class="cls-4" d="M165.9,56.96c0-.25.07-.46.22-.62s.37-.25.67-.25.52.08.68.25.23.38.23.62-.08.44-.23.6-.38.24-.68.24-.52-.08-.67-.24-.22-.36-.22-.6Z"/>
      <path class="cls-4" d="M176.59,54.74h-4.77l-1.07,2.98h-1.55l4.34-11.38h1.31l4.35,11.38h-1.54l-1.09-2.98ZM172.28,53.51h3.87l-1.94-5.32-1.93,5.32Z"/>
      <path class="cls-4" d="M183.91,56.69c.52,0,.97-.16,1.35-.47s.6-.7.64-1.17h1.37c-.03.48-.19.95-.5,1.38s-.72.79-1.23,1.05-1.06.39-1.63.39c-1.15,0-2.07-.38-2.75-1.15s-1.02-1.82-1.02-3.15v-.24c0-.82.15-1.55.45-2.2s.74-1.14,1.3-1.49,1.23-.53,2-.53c.95,0,1.74.28,2.36.85s.96,1.3,1,2.21h-1.37c-.04-.55-.25-1-.62-1.35s-.83-.53-1.38-.53c-.73,0-1.3.26-1.71.79s-.61,1.29-.61,2.29v.27c0,.97.2,1.72.6,2.25s.97.79,1.72.79Z"/>
      <path class="cls-4" d="M192.29,56.69c.52,0,.97-.16,1.35-.47s.6-.7.64-1.17h1.37c-.03.48-.19.95-.5,1.38s-.72.79-1.23,1.05-1.06.39-1.63.39c-1.15,0-2.07-.38-2.75-1.15s-1.02-1.82-1.02-3.15v-.24c0-.82.15-1.55.45-2.2s.74-1.14,1.3-1.49,1.23-.53,2-.53c.95,0,1.74.28,2.36.85s.96,1.3,1,2.21h-1.37c-.04-.55-.25-1-.62-1.35s-.83-.53-1.38-.53c-.73,0-1.3.26-1.71.79s-.61,1.29-.61,2.29v.27c0,.97.2,1.72.6,2.25s.97.79,1.72.79Z"/>
      <path class="cls-4" d="M200.78,57.87c-1.15,0-2.08-.38-2.8-1.13s-1.08-1.76-1.08-3.02v-.27c0-.84.16-1.59.48-2.25s.77-1.17,1.34-1.55,1.2-.56,1.87-.56c1.1,0,1.95.36,2.56,1.09s.91,1.76.91,3.11v.6h-5.73c.02.83.26,1.51.73,2.02s1.06.77,1.78.77c.51,0,.94-.1,1.3-.31s.66-.48.93-.83l.88.69c-.71,1.09-1.77,1.63-3.19,1.63ZM200.6,50.29c-.58,0-1.07.21-1.47.64s-.64,1.02-.73,1.79h4.23v-.11c-.04-.73-.24-1.3-.59-1.71s-.83-.61-1.44-.61Z"/>
      <path class="cls-4" d="M207.32,57.72h-1.45v-12h1.45v12Z"/>
      <path class="cls-4" d="M213.14,57.87c-1.15,0-2.08-.38-2.8-1.13s-1.08-1.76-1.08-3.02v-.27c0-.84.16-1.59.48-2.25s.77-1.17,1.34-1.55,1.2-.56,1.87-.56c1.1,0,1.95.36,2.56,1.09s.91,1.76.91,3.11v.6h-5.73c.02.83.26,1.51.73,2.02s1.06.77,1.78.77c.51,0,.94-.1,1.3-.31s.66-.48.93-.83l.88.69c-.71,1.09-1.77,1.63-3.19,1.63ZM212.96,50.29c-.58,0-1.07.21-1.47.64s-.64,1.02-.73,1.79h4.23v-.11c-.04-.73-.24-1.3-.59-1.71s-.83-.61-1.44-.61Z"/>
      <path class="cls-4" d="M222.19,50.56c-.22-.04-.46-.05-.71-.05-.95,0-1.59.4-1.93,1.21v6h-1.45v-8.45h1.41l.02.98c.47-.75,1.15-1.13,2.02-1.13.28,0,.5.04.64.11v1.34Z"/>
      <path class="cls-4" d="M228.43,57.72c-.08-.17-.15-.46-.2-.89-.67.7-1.47,1.05-2.41,1.05-.83,0-1.52-.24-2.05-.71s-.8-1.07-.8-1.79c0-.88.33-1.56,1-2.05s1.61-.73,2.82-.73h1.41v-.66c0-.5-.15-.91-.45-1.21s-.75-.45-1.34-.45c-.52,0-.95.13-1.3.39s-.52.58-.52.95h-1.45c0-.42.15-.83.45-1.22s.71-.7,1.22-.93,1.08-.34,1.69-.34c.97,0,1.74.24,2.29.73s.84,1.16.86,2.01v3.89c0,.78.1,1.39.3,1.85v.12h-1.52ZM226.03,56.61c.45,0,.88-.12,1.29-.35s.7-.54.88-.91v-1.73h-1.13c-1.77,0-2.66.52-2.66,1.55,0,.45.15.81.45,1.06s.69.38,1.16.38Z"/>
      <path class="cls-4" d="M233.87,47.22v2.05h1.58v1.12h-1.58v5.25c0,.34.07.59.21.76.14.17.38.25.72.25.17,0,.4-.03.69-.09v1.17c-.38.1-.75.16-1.11.16-.65,0-1.13-.2-1.46-.59s-.49-.95-.49-1.66v-5.24h-1.54v-1.12h1.54v-2.05h1.45Z"/>
      <path class="cls-4" d="M240.64,57.87c-1.15,0-2.08-.38-2.8-1.13s-1.08-1.76-1.08-3.02v-.27c0-.84.16-1.59.48-2.25s.77-1.17,1.34-1.55,1.2-.56,1.87-.56c1.1,0,1.95.36,2.56,1.09s.91,1.76.91,3.11v.6h-5.73c.02.83.26,1.51.73,2.02s1.06.77,1.78.77c.51,0,.94-.1,1.3-.31s.66-.48.93-.83l.88.69c-.71,1.09-1.77,1.63-3.19,1.63ZM240.46,50.29c-.58,0-1.07.21-1.47.64s-.64,1.02-.73,1.79h4.23v-.11c-.04-.73-.24-1.3-.59-1.71s-.83-.61-1.44-.61Z"/>
      <path class="cls-4" d="M245.64,56.96c0-.25.07-.46.22-.62s.37-.25.67-.25.52.08.68.25.23.38.23.62-.08.44-.23.6-.38.24-.68.24-.52-.08-.67-.24-.22-.36-.22-.6Z"/>
      <path class="cls-4" d="M256.33,54.74h-4.77l-1.07,2.98h-1.55l4.34-11.38h1.31l4.35,11.38h-1.54l-1.09-2.98ZM252.02,53.51h3.87l-1.94-5.32-1.93,5.32Z"/>
      <path class="cls-4" d="M263.65,56.69c.52,0,.97-.16,1.35-.47s.6-.7.64-1.17h1.37c-.03.48-.19.95-.5,1.38s-.72.79-1.23,1.05-1.06.39-1.63.39c-1.15,0-2.07-.38-2.75-1.15s-1.02-1.82-1.02-3.15v-.24c0-.82.15-1.55.45-2.2s.74-1.14,1.3-1.49,1.23-.53,2-.53c.95,0,1.74.28,2.36.85s.96,1.3,1,2.21h-1.37c-.04-.55-.25-1-.62-1.35s-.83-.53-1.38-.53c-.73,0-1.3.26-1.71.79s-.61,1.29-.61,2.29v.27c0,.97.2,1.72.6,2.25s.97.79,1.72.79Z"/>
      <path class="cls-4" d="M270.08,50.29c.64-.79,1.47-1.18,2.5-1.18,1.79,0,2.69,1.01,2.7,3.02v5.59h-1.45v-5.59c0-.61-.14-1.06-.42-1.35s-.7-.44-1.28-.44c-.47,0-.88.12-1.23.38s-.63.58-.83.98v6.02h-1.45v-12h1.45v4.57Z"/>
      <path class="cls-4" d="M277.46,47.02c0-.23.07-.43.21-.59s.36-.24.64-.24.5.08.64.24.22.36.22.59-.07.43-.22.59-.36.23-.64.23-.49-.08-.64-.23-.21-.35-.21-.59ZM279.02,57.72h-1.45v-8.45h1.45v8.45Z"/>
      <path class="cls-4" d="M284.84,57.87c-1.15,0-2.08-.38-2.8-1.13s-1.08-1.76-1.08-3.02v-.27c0-.84.16-1.59.48-2.25s.77-1.17,1.34-1.55,1.2-.56,1.87-.56c1.1,0,1.95.36,2.56,1.09s.91,1.76.91,3.11v.6h-5.73c.02.83.26,1.51.73,2.02s1.06.77,1.78.77c.51,0,.94-.1,1.3-.31s.66-.48.93-.83l.88.69c-.71,1.09-1.77,1.63-3.19,1.63ZM284.66,50.29c-.58,0-1.07.21-1.47.64s-.64,1.02-.73,1.79h4.23v-.11c-.04-.73-.24-1.3-.59-1.71s-.83-.61-1.44-.61Z"/>
      <path class="cls-4" d="M292.5,55.75l2.09-6.49h1.48l-3.03,8.45h-1.1l-3.06-8.45h1.48l2.15,6.49Z"/>
      <path class="cls-4" d="M300.96,57.87c-1.15,0-2.08-.38-2.8-1.13s-1.08-1.76-1.08-3.02v-.27c0-.84.16-1.59.48-2.25s.77-1.17,1.34-1.55,1.2-.56,1.87-.56c1.1,0,1.95.36,2.56,1.09s.91,1.76.91,3.11v.6h-5.73c.02.83.26,1.51.73,2.02s1.06.77,1.78.77c.51,0,.94-.1,1.3-.31s.66-.48.93-.83l.88.69c-.71,1.09-1.77,1.63-3.19,1.63ZM300.79,50.29c-.58,0-1.07.21-1.47.64s-.64,1.02-.73,1.79h4.23v-.11c-.04-.73-.24-1.3-.59-1.71s-.83-.61-1.44-.61Z"/>
    </g>
  </g>
</svg>