<?xml version="1.0" encoding="UTF-8"?>
<svg id="Layer_2" data-name="Layer 2" xmlns="http://www.w3.org/2000/svg" xmlns:xlink="http://www.w3.org/1999/xlink" viewBox="0 0 62.44 62.44">
  <defs>
    <style>
      .cls-1 {
        fill: #1c89d2;
      }

      .cls-2 {
        fill: #fff;
      }

      .cls-3 {
        fill: none;
        stroke: #1c89d2;
        stroke-miterlimit: 10;
        stroke-width: 5px;
      }

      .cls-4 {
        fill: url(#linear-gradient);
      }
    </style>
    <linearGradient id="linear-gradient" x1="29.91" y1="10.85" x2="29.91" y2="40.51" gradientUnits="userSpaceOnUse">
      <stop offset="0" stop-color="#f29503"/>
      <stop offset="1" stop-color="#ffc705"/>
    </linearGradient>
  </defs>
  <g id="Layer_1-2" data-name="Layer 1">
    <g>
      <rect class="cls-3" x="2.5" y="2.5" width="57.44" height="57.44" rx="11.52" ry="11.52"/>
      <path class="cls-1" d="M10.72,44.16c2.21-4.5,9.05-18.3,15-28.24,1-1.68,2.98-4.89,5.61-4.89,2.56,0,4.47,3.04,5.43,4.61,6.02,9.81,13.2,23.99,15.3,28.17.86,2.75-.27,5.36-1.89,6.02-1.88.77-5.13-.78-5.93-4.28-.2-.48-.72-1.57-1.89-2.43-1.35-1-2.75-1.1-3.26-1.11-5.12.08-10.25.16-15.37.24-.58.08-1.76.32-2.96,1.2-1.17.86-1.77,1.89-2.02,2.41-.79,3.27-4.02,4.71-6.02,3.83-1.62-.72-2.67-3.07-2-5.53Z"/>
      <path class="cls-1" d="M47.23,34.9c-7.67.06-15.35.12-23.02.19-.05.42-.42,3.08-2.8,4.7-1.66,1.13-3.37,1.13-3.98,1.1-1.43-.03-2.86-.07-4.28-.1-.2,1.45-.4,2.9-.59,4.34l14.2-4.04c5.07.02,10.13.04,15.2.07,1.83,1.89,3.65,3.78,5.48,5.67,1.22.03,2.43.06,3.65.08-1.28-4-2.57-8.01-3.85-12.01Z"/>
      <path class="cls-2" d="M24.54,34.51c2.23-4.17,4.45-8.35,6.68-12.52,2.27,4.17,4.55,8.35,6.82,12.52h-13.5Z"/>
      <path class="cls-4" d="M12.53,40.51c1.77-.25,3.55-.49,5.32-.74.82-.17,2.01-.54,3.26-1.35,2.01-1.31,3.01-3.05,3.43-3.91,2.23-4.17,4.45-8.35,6.68-12.52,2.27,4.17,4.55,8.35,6.82,12.52h9.25c-2.27-4.63-6.61-13.18-11.22-19.96-.92-1.35-2.58-3.7-4.77-3.7-2.21,0-3.86,2.4-4.72,3.7-5.22,7.9-12.41,22.59-14.05,25.95Z"/>
    </g>
  </g>
</svg>